<svg xmlns="http://www.w3.org/2000/svg" xmlns:xlink="http://www.w3.org/1999/xlink" viewBox="0 0 271.2 70.04"><defs><style>.cls-1{fill:none;}.cls-2{fill:#f05a28;}.cls-3{fill:#fff;}.cls-4{clip-path:url(#clip-path);}</style><clipPath id="clip-path"><circle class="cls-1" cx="200.1" cy="41.48" r="12.65"/></clipPath></defs><title>Logo Reversed_1xxxhdpi</title><g id="Layer_2" data-name="Layer 2"><g id="Layer_1-2" data-name="Layer 1"><path class="cls-2" d="M9.9,59.47a16.66,16.66,0,0,1-7.18-5.59A14.69,14.69,0,0,1,0,45.26H11.65A7.5,7.5,0,0,0,14,50.54a8.37,8.37,0,0,0,5.86,1.94,9,9,0,0,0,6-1.82A6,6,0,0,0,28,45.88a5.51,5.51,0,0,0-1.48-4,10.28,10.28,0,0,0-3.69-2.45,63.09,63.09,0,0,0-6.09-2,65.84,65.84,0,0,1-8.58-3.07,15,15,0,0,1-5.67-4.58A13,13,0,0,1,.16,21.66a14.65,14.65,0,0,1,2.4-8.38A15.38,15.38,0,0,1,9.32,7.8a24.7,24.7,0,0,1,9.93-1.9q8.38,0,13.63,4.08a15.1,15.1,0,0,1,5.78,11.37H26.71a6.23,6.23,0,0,0-2.37-4.62,9,9,0,0,0-5.86-1.82,7.53,7.53,0,0,0-5.09,1.63,5.87,5.87,0,0,0-1.9,4.73,4.88,4.88,0,0,0,1.44,3.61,10.68,10.68,0,0,0,3.57,2.33c1.42.6,3.43,1.28,6,2.06a62.9,62.9,0,0,1,8.62,3.11A15.43,15.43,0,0,1,36.88,37a13,13,0,0,1,2.4,8.16A15.34,15.34,0,0,1,37,53.26a16,16,0,0,1-6.6,5.94,22.57,22.57,0,0,1-10.32,2.21A25.64,25.64,0,0,1,9.9,59.47Z"/><path class="cls-2" d="M70.26,60.87,55.67,42.55V60.87H44.8V3.42H55.67V36.1L70.11,17.86H84.24L65.29,39.44l19.1,21.43Z"/><path class="cls-2" d="M87,10.91a6,6,0,0,1-1.9-4.54A6.05,6.05,0,0,1,87,1.82a7.17,7.17,0,0,1,9.55,0,6.05,6.05,0,0,1,1.9,4.55,6,6,0,0,1-1.9,4.54,7.17,7.17,0,0,1-9.55,0Zm10.13,7v43H86.26v-43Z"/><path class="cls-2" d="M114.83,3.42V60.87H104V3.42Z"/><path class="cls-2" d="M132.53,3.42V60.87H121.66V3.42Z"/><path class="cls-3" d="M147.11,59.42a16.69,16.69,0,0,1-7-5.53,14.15,14.15,0,0,1-2.61-8.18h7.89a10.34,10.34,0,0,0,3.3,6.71q2.88,2.73,8.42,2.73,5.28,0,8.33-2.64a8.58,8.58,0,0,0,3-6.8,7.66,7.66,0,0,0-1.79-5.28,11.3,11.3,0,0,0-4.47-3.09A67.62,67.62,0,0,0,155,35.06a63.82,63.82,0,0,1-9-2.93,14.49,14.49,0,0,1-5.77-4.6,13.47,13.47,0,0,1-2.4-8.41,14.53,14.53,0,0,1,2.36-8.22,15.37,15.37,0,0,1,6.63-5.53,23.32,23.32,0,0,1,9.8-1.95q8,0,13.05,4A14.75,14.75,0,0,1,175.46,18h-8.14a8.81,8.81,0,0,0-3.41-5.74,12.17,12.17,0,0,0-8-2.48,11.54,11.54,0,0,0-7.57,2.4,8.21,8.21,0,0,0-2.93,6.71,7.33,7.33,0,0,0,1.75,5.05,11.2,11.2,0,0,0,4.31,3q2.56,1,7.2,2.32a68.27,68.27,0,0,1,9,3.05,15.13,15.13,0,0,1,5.86,4.64c1.62,2.09,2.44,4.92,2.44,8.5a15,15,0,0,1-2.2,7.81,16,16,0,0,1-6.51,5.93,21.42,21.42,0,0,1-10.16,2.28A24.23,24.23,0,0,1,147.11,59.42Z"/><path class="cls-3" d="M237.71,20.33a16.38,16.38,0,0,1,8.42-2v5.84h-1.86c-7.92.69-11.88,5-11.88,13.58V60.87h-7.07V18.32h7.07v6.91C233.63,22.8,235.4,21.68,237.71,20.33Z"/><path class="cls-3" d="M260.09,24.15V49.22c0,2.07.44,3.54,1.32,4.39s2.41,1.28,4.58,1.28h5.21v6h-6.37q-5.9,0-8.85-2.72T253,49.22V24.15h-7.16V18.32H253V7.61h7.06V18.32H271.2l-3.33,5.83Z"/><path class="cls-3" d="M198.8,19.31h2.58a4,4,0,0,0,.48.09,20.2,20.2,0,0,1,4.94,1A22.18,22.18,0,1,1,189,60.69c-.71-.41-1.39-.88-2.15-1.36a4.87,4.87,0,0,1-.35.42c-2.95,2.93-5.93,5.84-8.87,8.78A4.9,4.9,0,0,1,175.22,70h-1a9.85,9.85,0,0,1-1.36-.63,3.24,3.24,0,0,1-1.31-2V66.28a5.49,5.49,0,0,1,1.65-2.4c2.91-2.88,5.8-5.79,8.69-8.68l.39-.4c0-.08,0-.12-.06-.14l-.26-.37a21.81,21.81,0,0,1-3.94-15A22.16,22.16,0,0,1,196.12,19.7C197,19.54,197.91,19.44,198.8,19.31ZM216,41.51a15.85,15.85,0,1,0-15.86,15.85A15.86,15.86,0,0,0,216,41.51Z"/><g class="cls-4"><path class="cls-2" d="M204.86,42.07a6.16,6.16,0,1,0-9.53,0,12.31,12.31,0,1,0,9.53,0Z"/></g></g></g></svg>