<?xml version="1.0" encoding="utf-8"?>
<!-- Generator: Adobe Illustrator 23.0.1, SVG Export Plug-In . SVG Version: 6.00 Build 0)  -->
<svg version="1.1" xmlns="http://www.w3.org/2000/svg" xmlns:xlink="http://www.w3.org/1999/xlink" x="0px" y="0px"
	 viewBox="0 0 16 16" style="enable-background:new 0 0 16 16;" xml:space="preserve">
<style type="text/css">
	.st0{fill:#3B489E;}
	.st1{fill:#F05A28;}
	.st2{opacity:0.5;fill:url(#SVGID_5_);}
	.st3{fill:#FFFFFF;}
	.st4{opacity:0.5;fill:#3B489E;}
	.st5{fill:#3D5A98;}
	.st6{fill:#067AB9;}
	.st7{fill:#F1F1F1;}
	.st8{fill:#5FA8DC;}
	.st9{fill:#CC3A3A;}
	.st10{enable-background:new    ;}
	.st11{clip-path:url(#SVGID_9_);enable-background:new    ;}
	.st12{fill:#162021;}
	.st13{fill:#152020;}
	.st14{fill:#141F1F;}
	.st15{fill:#141E1E;}
	.st16{fill:#131D1D;}
	.st17{fill:#131C1D;}
	.st18{fill:#121B1C;}
	.st19{fill:#111A1B;}
	.st20{fill:#11191A;}
	.st21{fill:#101819;}
	.st22{fill:#101718;}
	.st23{clip-path:url(#SVGID_11_);enable-background:new    ;}
	.st24{fill:#162122;}
	.st25{fill:#172223;}
	.st26{fill:#172324;}
	.st27{fill:#182425;}
	.st28{fill:#172323;}
	.st29{fill:#1A2728;}
	.st30{clip-path:url(#SVGID_13_);enable-background:new    ;}
	.st31{fill:#192526;}
	.st32{fill:#192627;}
	.st33{fill:#1A2828;}
	.st34{fill:#1B2929;}
	.st35{fill:#1C292A;}
	.st36{fill:#1C2A2B;}
	.st37{fill:#1D2B2C;}
	.st38{fill:#1D2C2D;}
	.st39{fill:#1E2D2E;}
	.st40{fill:#394647;}
	.st41{fill:#445151;}
	.st42{fill:#4D5959;}
	.st43{fill:#545F60;}
	.st44{fill:#5A6566;}
	.st45{fill:#382F59;}
	.st46{fill:url(#SVGID_14_);}
	.st47{fill:#FE5D9B;}
	.st48{opacity:0.16;}
	.st49{fill:#283233;}
	.st50{fill:#F1EDFF;}
	.st51{fill:#15397B;}
	.st52{fill:#F3D7BF;}
	.st53{fill:#4A86FE;}
	.st54{fill:#06206A;}
	.st55{fill:#F3D1B4;}
	.st56{fill:#BEB6DB;}
	.st57{fill:#FC4AD6;}
	.st58{fill:#00E3EE;}
	.st59{fill:#263E84;}
	.st60{fill:#0C142A;}
	.st61{fill:#837366;}
	.st62{fill:#062069;}
	.st63{fill:#714FE3;}
	.st64{fill:#392872;}
	.st65{fill:#3D2A7A;}
	.st66{fill:#7A6C5F;}
	.st67{fill:#00A7B0;}
	.st68{fill:#00D6E1;}
	.st69{opacity:0.56;}
	.st70{opacity:0.29;}
	.st71{opacity:0.31;}
	.st72{clip-path:url(#SVGID_16_);enable-background:new    ;}
	.st73{clip-path:url(#SVGID_18_);enable-background:new    ;}
	.st74{fill:#1F345A;}
	.st75{fill:#162540;}
	.st76{clip-path:url(#SVGID_20_);fill:#FE7FB0;}
	.st77{fill:#FE2E7E;}
	.st78{fill:#FE7FB0;}
	.st79{fill:#C5C5C5;}
	.st80{fill:#D2CEDE;}
	.st81{clip-path:url(#SVGID_22_);enable-background:new    ;}
	.st82{fill:#B8B8B8;}
	.st83{fill:#B3B3B3;}
	.st84{fill:#ADADAD;}
	.st85{fill:#A8A8A8;}
	.st86{clip-path:url(#SVGID_24_);enable-background:new    ;}
	.st87{fill:#A3A3A3;}
	.st88{fill:#9E9E9E;}
	.st89{fill:#999999;}
	.st90{clip-path:url(#SVGID_26_);enable-background:new    ;}
	.st91{fill:#949494;}
	.st92{fill:#6446C9;}
	.st93{clip-path:url(#SVGID_28_);enable-background:new    ;}
	.st94{fill:#5B40B8;}
	.st95{clip-path:url(#SVGID_30_);fill:#5B40B8;}
	.st96{clip-path:url(#SVGID_32_);fill:#9178E3;}
	.st97{fill:#4379E6;}
	.st98{fill:#9178E3;}
	.st99{fill:#A4DEE1;}
	.st100{fill:#F7529E;}
	.st101{opacity:0.39;fill:url(#SVGID_33_);}
	.st102{opacity:0.39;fill:url(#SVGID_34_);}
	.st103{fill:#91ADE6;}
	.st104{fill:#543BA8;}
	.st105{fill:#872873;}
	.st106{clip-path:url(#SVGID_36_);enable-background:new    ;}
	.st107{fill:#922B7C;}
	.st108{fill:#972C80;}
	.st109{fill:#9C2E85;}
	.st110{fill:#A12F89;}
	.st111{fill:#A6318D;}
	.st112{fill:#AB3292;}
	.st113{fill:#B03496;}
	.st114{fill:#B5359A;}
	.st115{fill:#8D2978;}
	.st116{fill:#882874;}
	.st117{fill:#83266F;}
	.st118{opacity:0.77;}
	.st119{fill:#C8E0E1;}
	.st120{fill:#FE2478;}
	.st121{clip-path:url(#SVGID_38_);fill:#FE5D9B;}
	.st122{fill:#FEA5C7;}
	.st123{opacity:0.39;fill:url(#SVGID_39_);}
	.st124{fill:#FE1971;}
	.st125{fill:url(#SVGID_40_);}
	.st126{fill:url(#SVGID_41_);}
	.st127{opacity:0.89;}
	.st128{fill:#0B0D0F;}
	.st129{fill:#1A2642;}
	.st130{fill:#263861;}
	.st131{fill:#274170;}
	.st132{fill:#232323;}
	.st133{opacity:0.39;fill:url(#SVGID_42_);}
	.st134{fill:#1F58CC;}
	.st135{opacity:0.39;fill:url(#SVGID_43_);}
	.st136{fill:#7E4973;}
	.st137{fill:#A9328F;}
	.st138{fill:#A9629A;}
	.st139{fill:#AF659F;}
	.st140{fill:#77E9EE;}
	.st141{fill:#7E256B;}
	.st142{fill:#00C5CF;}
	.st143{fill:#6792E6;}
	.st144{fill:#1C5FE6;}
	.st145{fill:#1850C2;}
	.st146{fill:#FE8CB8;}
	.st147{fill:#FE2477;}
	.st148{fill:#FE4089;}
	.st149{opacity:0.39;fill:url(#SVGID_44_);}
	.st150{fill:#00BBC4;}
	.st151{opacity:0.39;fill:url(#SVGID_45_);}
	.st152{clip-path:url(#SVGID_47_);fill:#2363E6;}
	.st153{fill:#2363E6;}
	.st154{fill:url(#SVGID_48_);}
	.st155{opacity:0.18;fill:#FFFFFF;}
	.st156{opacity:0.39;fill:url(#SVGID_49_);}
	.st157{clip-path:url(#SVGID_51_);enable-background:new    ;}
	.st158{fill:#BA379E;}
	.st159{fill:#C038A3;}
	.st160{fill:#C53AA7;}
	.st161{fill:#CA3BAB;}
	.st162{fill:#CF3DAF;}
	.st163{fill:#D43EB4;}
	.st164{fill:#D940B8;}
	.st165{fill:#DE41BC;}
	.st166{fill:#E343C1;}
	.st167{fill:#E844C5;}
	.st168{fill:#ED46C9;}
	.st169{fill:#F247CD;}
	.st170{fill:#F749D2;}
	.st171{fill:#FC60DB;}
	.st172{fill:#FD69DD;}
	.st173{fill:#FD70DF;}
	.st174{fill:#FD75E0;}
	.st175{fill:#FD7BE1;}
	.st176{fill:#C239A5;}
	.st177{fill:#C271B1;}
	.st178{fill:#641D56;}
	.st179{fill:#007C82;}
	.st180{fill:#702160;}
	.st181{fill:none;}
	.st182{clip-path:url(#SVGID_53_);enable-background:new    ;}
	.st183{fill:#00A0A8;}
	.st184{fill:#00B6BF;}
	.st185{opacity:0.39;fill:url(#SVGID_54_);}
	.st186{fill:#D64F82;}
	.st187{fill:#834C77;}
	.st188{fill:#E886D3;}
	.st189{fill:#ED89D7;}
	.st190{fill:#F28CDC;}
	.st191{fill:#F78FE0;}
	.st192{fill:#FC92E5;}
	.st193{fill:#FC9FE8;}
	.st194{fill:#FDA4E9;}
	.st195{fill:#FDA9EA;}
	.st196{fill:#FDACEB;}
	.st197{fill:#FDAFEC;}
	.st198{fill:#E383CE;}
	.st199{opacity:0.39;fill:url(#SVGID_55_);}
	.st200{fill:none;stroke:#4379E6;stroke-width:1.0963;stroke-miterlimit:10;}
	.st201{fill:none;stroke:#3967C4;stroke-width:2.0677;stroke-linecap:round;stroke-linejoin:round;stroke-miterlimit:10;}
	.st202{fill:none;stroke:#3967C4;stroke-width:1.9716;stroke-linecap:round;stroke-linejoin:round;stroke-miterlimit:10;}
	.st203{fill:none;stroke:#F05A28;stroke-width:4;stroke-linecap:round;stroke-miterlimit:10;stroke-dasharray:0,8;}
	.st204{fill:none;stroke:#FFFFFF;stroke-width:2;stroke-miterlimit:10;}
	.st205{fill:none;stroke:#FFFFFF;stroke-miterlimit:10;}
	.st206{fill:none;stroke:#FFFFFF;stroke-width:4;stroke-linecap:round;stroke-miterlimit:10;stroke-dasharray:0,8;}
	.st207{opacity:0.5;fill:url(#SVGID_56_);}
	.st208{fill:#E6E6E6;}
	.st209{clip-path:url(#SVGID_58_);}
	.st210{opacity:0.5;fill:url(#SVGID_59_);}
</style>
<g id="Layer_1">
	<g>
		<path class="st0" d="M8.6,0c0.3,0,0.5,0,0.8,0c0.1,0,0.1,0,0.2,0c0.5,0,1.1,0.1,1.6,0.3c3.5,1.2,5.5,4.7,4.7,8.3
			c-0.7,3-3.5,5.3-6.6,5.4c-1.3,0-2.6-0.3-3.8-0.9c-0.2-0.1-0.4-0.3-0.7-0.4c0,0-0.1,0.1-0.1,0.1c-0.9,0.9-1.9,1.8-2.8,2.8
			c-0.2,0.2-0.4,0.4-0.7,0.5c-0.1,0-0.2,0-0.3,0c-0.1-0.1-0.3-0.1-0.4-0.2c-0.2-0.1-0.3-0.4-0.4-0.6c0-0.1,0-0.2,0-0.3
			c0.1-0.3,0.3-0.5,0.5-0.8c0.9-0.9,1.8-1.8,2.7-2.7c0,0,0.1-0.1,0.1-0.1c0,0,0,0,0,0c0,0-0.1-0.1-0.1-0.1C2.3,9.6,1.9,8,2,6.3
			c0.1-1.5,0.7-2.9,1.8-4c1.1-1.2,2.4-1.9,3.9-2.2C8,0.1,8.3,0,8.6,0z M14,7c0-2.8-2.2-5-5-5C6.3,2,4,4.2,4,7c0,2.8,2.2,5,5,5
			C11.8,12,14,9.8,14,7z"/>
		<path class="st1" d="M12.5,9c-0.7,1.2-2,2-3.5,2c-1.5,0-2.8-0.8-3.5-2c0.4-0.8,1.1-1.5,2-1.8C7.2,6.8,7.1,6.4,7.1,6
			C7.1,4.9,7.9,4,9,4c1.1,0,1.9,0.9,1.9,1.9c0,0.5-0.2,0.9-0.4,1.2C11.4,7.5,12,8.2,12.5,9z"/>
	</g>
</g>
<g id="Layer_2">
</g>
</svg>
